<svg id="b44a6d95-844c-4fdd-ab04-f4fa25ee4f76" data-name="Слой 1" xmlns="http://www.w3.org/2000/svg" xmlns:xlink="http://www.w3.org/1999/xlink" viewBox="0 0 362.34 28.28"><defs><style>.b0bf82a3-8f44-4d7e-9b90-203cea939ccd{fill-rule:evenodd;fill:url(#a9af3596-c678-4758-a11f-404671f93a7f);}.a2747695-a7f7-48d2-bf11-513831371fa0{fill:#6a6a6e;stroke:#6a6a6e;stroke-miterlimit:10;}</style><linearGradient id="a9af3596-c678-4758-a11f-404671f93a7f" x1="28.21" y1="17.09" x2="0" y2="17.09" gradientTransform="matrix(1, 0, 0, -1, 0, 30)" gradientUnits="userSpaceOnUse"><stop offset="0" stop-color="#3e99ed"/><stop offset="1" stop-color="#72cfff"/></linearGradient></defs><path class="b0bf82a3-8f44-4d7e-9b90-203cea939ccd" d="M20.56,22.56l-4.73,2.8a3.4,3.4,0,0,1-3.45,0c-3.53-2.05-8.14-4.81-9.7-5.76S0,17.88,0,16.09C0,15,0,3.49,0,1.92S1.45-.59,3.18.42L14.11,6.9S23.5,1.32,25,.42c1.76-1,3.16,0,3.16,1.49V8.58c0,3.24,0,6.6,0,7.51,0,1.77-1.05,2.56-2.68,3.51ZM47.93,19h-.87c-3.67,0-4.56-2.23-4.56-4.52V2.92A1.79,1.79,0,0,0,42,1.67a1.81,1.81,0,0,0-1.25-.49,1.83,1.83,0,0,0-1.25.49A1.79,1.79,0,0,0,39,2.92V15c0,5.39,3.18,7.47,7.8,7.47h.52A2.52,2.52,0,0,0,48.87,22a1.52,1.52,0,0,0,.66-1.29,1.65,1.65,0,0,0-.45-1.21A1.44,1.44,0,0,0,47.93,19Zm56.18,0H105a1.42,1.42,0,0,1,1.15.52,1.61,1.61,0,0,1,.45,1.21,1.49,1.49,0,0,1-.66,1.29,2.5,2.5,0,0,1-1.53.45h-.52c-4.61,0-7.8-2.08-7.8-7.47V2.92a1.83,1.83,0,0,1,.49-1.25,1.85,1.85,0,0,1,2.51,0,1.82,1.82,0,0,1,.48,1.25V14.49C99.54,16.78,100.43,19,104.11,19Zm26.51-10.4a6.91,6.91,0,0,1,2.44,2.64A7.78,7.78,0,0,1,134,15a7.35,7.35,0,0,1-1,3.79,7.08,7.08,0,0,1-6.37,3.64,7.54,7.54,0,0,1-3.76-1,7.19,7.19,0,0,1-2.64-2.67,8.08,8.08,0,0,1-1-3.79V3a1.78,1.78,0,0,1,.49-1.28A2,2,0,0,1,121,1.18a1.63,1.63,0,0,1,1.25.45,1.88,1.88,0,0,1,.49,1.29V9.17a7,7,0,0,1,1.39-.9,6.76,6.76,0,0,1,2.92-.66A6.48,6.48,0,0,1,130.62,8.61Zm-2,10A4.16,4.16,0,0,0,130.52,15a4.36,4.36,0,0,0-.52-2.15,3.78,3.78,0,0,0-1.4-1.46,3.59,3.59,0,0,0-2-.55,3.67,3.67,0,0,0-2,.55,3.76,3.76,0,0,0-1.39,1.46,4.65,4.65,0,0,0,0,4.31,4.06,4.06,0,0,0,1.39,1.49,4,4,0,0,0,2,.52A3.84,3.84,0,0,0,128.6,18.65ZM111.17,8.2a1.93,1.93,0,0,1,1.28-.49,1.81,1.81,0,0,1,1.29.49,1.79,1.79,0,0,1,.49,1.28V20.71a1.8,1.8,0,0,1-.49,1.25,1.76,1.76,0,0,1-1.29.52A1.85,1.85,0,0,1,111.2,22a1.83,1.83,0,0,1-.52-1.28V9.48A1.74,1.74,0,0,1,111.17,8.2Zm1.28-6.7a2.07,2.07,0,0,0-1.53.65,2,2,0,0,0-.62,1.5,2.16,2.16,0,0,0,.62,1.53,2.11,2.11,0,0,0,1.5.62,2.06,2.06,0,0,0,1.5-.62,2.17,2.17,0,0,0,.66-1.53,2,2,0,0,0-.63-1.5A2,2,0,0,0,112.45,1.5Zm-24,7a6.79,6.79,0,0,0-3.62-.93,7.24,7.24,0,0,0-3.76,1,6.73,6.73,0,0,0-2.57,2.64A8,8,0,0,0,77.61,15a7.55,7.55,0,0,0,1,3.85,7.31,7.31,0,0,0,2.71,2.64,8.08,8.08,0,0,0,3.94.94A7.61,7.61,0,0,0,87.78,22,7.4,7.4,0,0,0,90,20.84a1.29,1.29,0,0,0,.59-1.18A1.77,1.77,0,0,0,90,18.48a1.5,1.5,0,0,0-1-.39h-.07a1.72,1.72,0,0,0-1.08.39,5.26,5.26,0,0,1-1.19.59,4.15,4.15,0,0,1-1.42.24,4.27,4.27,0,0,1-2.89-1,4,4,0,0,1-1.29-1.95h8.88a1.7,1.7,0,0,0,1.18-.45,1.54,1.54,0,0,0,.45-1.14,8.28,8.28,0,0,0-.8-3.69A6,6,0,0,0,88.47,8.54Zm-7.38,4.87a3.92,3.92,0,0,1,1.12-1.77,3.76,3.76,0,0,1,2.64-.91,2.93,2.93,0,0,1,2.34.91,3.67,3.67,0,0,1,1,1.77ZM73.28,7.69a2.13,2.13,0,0,1,.76.17,1.94,1.94,0,0,1,.86.89A1.67,1.67,0,0,1,74.83,10L69.57,21.34A1.71,1.71,0,0,1,68,22.47a1.75,1.75,0,0,1-1.63-1.1L61.09,10A1.54,1.54,0,0,1,61,8.78a1.82,1.82,0,0,1,1.63-1.09,1.29,1.29,0,0,1,.48.1,1.65,1.65,0,0,1,.94.82L68,17.16l3.84-8.55a1.71,1.71,0,0,1,1-.85A2.25,2.25,0,0,1,73.28,7.69Zm-17.8,0a1.93,1.93,0,0,0-1.28.49,1.74,1.74,0,0,0-.49,1.28V20.71A1.83,1.83,0,0,0,54.23,22a1.85,1.85,0,0,0,1.25.49A1.76,1.76,0,0,0,56.77,22a1.8,1.8,0,0,0,.49-1.25V9.48a1.79,1.79,0,0,0-.49-1.28A1.81,1.81,0,0,0,55.48,7.71ZM54,2.15a2.05,2.05,0,0,1,1.53-.65,2,2,0,0,1,1.5.65,2,2,0,0,1,.63,1.5A2.17,2.17,0,0,1,57,5.18a2.06,2.06,0,0,1-1.5.62A2.11,2.11,0,0,1,54,5.18a2.16,2.16,0,0,1-.62-1.53A2,2,0,0,1,54,2.15Z"/><path class="a2747695-a7f7-48d2-bf11-513831371fa0" d="M141.19,26.23a1.26,1.26,0,0,1-1.3-1.3V20.78a1.27,1.27,0,0,1,.37-.94,1.29,1.29,0,0,1,.93-.36h17.6a1.24,1.24,0,0,1,1.3,1.3v4.15a1.29,1.29,0,0,1-.36.93,1.31,1.31,0,0,1-2.24-.93V21.78h-15v3.15a1.29,1.29,0,0,1-.36.93A1.27,1.27,0,0,1,141.19,26.23ZM144,21l-2.23-1.07,7-16.78A1.27,1.27,0,0,1,150,2.26a1.22,1.22,0,0,1,1.23.87l7,16.83-2.08,1-6.35-15.4h.35Z"/><path class="a2747695-a7f7-48d2-bf11-513831371fa0" d="M170.66,21.88a7.05,7.05,0,0,1-3.57-.88,6.41,6.41,0,0,1-2.44-2.46,7.12,7.12,0,0,1-.89-3.58,7.18,7.18,0,0,1,.89-3.61,6.31,6.31,0,0,1,2.44-2.45,7.56,7.56,0,0,1,7.12,0,6.31,6.31,0,0,1,2.44,2.45,7.18,7.18,0,0,1,.89,3.61,7.12,7.12,0,0,1-.88,3.58A6.36,6.36,0,0,1,174.24,21,7.12,7.12,0,0,1,170.66,21.88Zm0-2.25A4.36,4.36,0,0,0,173,19a4.23,4.23,0,0,0,1.57-1.65,5.11,5.11,0,0,0,.56-2.42,5.2,5.2,0,0,0-.56-2.44A4.19,4.19,0,0,0,173,10.86a4.36,4.36,0,0,0-2.3-.6,4.41,4.41,0,0,0-2.3.6,4.26,4.26,0,0,0-1.57,1.66,5,5,0,0,0-.58,2.44,4.9,4.9,0,0,0,.58,2.42A4.3,4.3,0,0,0,168.36,19,4.41,4.41,0,0,0,170.66,19.63Z"/><path class="a2747695-a7f7-48d2-bf11-513831371fa0" d="M184,21.81a1.11,1.11,0,0,1-.88-.37,1.33,1.33,0,0,1-.32-.91V9.38a1.32,1.32,0,0,1,.32-.92,1.12,1.12,0,0,1,.88-.35,1.29,1.29,0,0,1,.94.35,1.22,1.22,0,0,1,.36.92v4.18h3.2v2.35h-3.2v4.62a1.23,1.23,0,0,1-.36.91A1.27,1.27,0,0,1,184,21.81Zm9.9-.33a1.25,1.25,0,0,1-.91.29,1.28,1.28,0,0,1-.92-.34L186,14.91l5.72-6.4a1.31,1.31,0,0,1,.92-.4,1.12,1.12,0,0,1,.91.25,1.22,1.22,0,0,1,.42.79.94.94,0,0,1-.27.78l-4.53,4.85,4.8,5.15a1,1,0,0,1-.07,1.55Z"/><path class="a2747695-a7f7-48d2-bf11-513831371fa0" d="M198.16,27.78a3.61,3.61,0,0,1-.91-.12,4.19,4.19,0,0,1-.91-.38,1.55,1.55,0,0,1-.73-.8,1,1,0,0,1,.15-.92,1.24,1.24,0,0,1,.73-.53,1.22,1.22,0,0,1,.9.18,2.71,2.71,0,0,0,.51.22,1.62,1.62,0,0,0,.49.08,2.12,2.12,0,0,0,1.54-.83,9.72,9.72,0,0,0,1.46-2.45l6-13.5a1.19,1.19,0,0,1,.69-.67,1.15,1.15,0,0,1,.94,0,.92.92,0,0,1,.55.64,1.39,1.39,0,0,1-.13,1l-6,13.5a9.62,9.62,0,0,1-2.29,3.29A4.31,4.31,0,0,1,198.16,27.78Zm5.7-6.55a1.09,1.09,0,0,1-.88,0,1.3,1.3,0,0,1-.67-.64L196.59,9.76a1,1,0,0,1-.06-.91,1.13,1.13,0,0,1,.66-.64,1.11,1.11,0,0,1,.89,0,1.32,1.32,0,0,1,.66.64l5.5,10.77a1.57,1.57,0,0,1,.17,1A.84.84,0,0,1,203.86,21.23Z"/><path class="a2747695-a7f7-48d2-bf11-513831371fa0" d="M214.94,21.78a1.23,1.23,0,0,1-.91-.36,1.21,1.21,0,0,1-.37-.91V9.38a1.19,1.19,0,0,1,.37-.92,1.22,1.22,0,0,1,.91-.35,1.64,1.64,0,0,1,1.35.77l5.17,7.48,5.18-7.48A1.61,1.61,0,0,1,228,8.11a1.2,1.2,0,0,1,1.27,1.27V20.51a1.24,1.24,0,0,1-.35.91,1.29,1.29,0,0,1-2.2-.91v-9.1l.65.2-4.6,6.5a1.66,1.66,0,0,1-1.35.86,1.72,1.72,0,0,1-1.32-.86l-4.53-6.5.65-.2v9.1a1.24,1.24,0,0,1-.35.91A1.22,1.22,0,0,1,214.94,21.78Z"/><path class="a2747695-a7f7-48d2-bf11-513831371fa0" d="M241.69,21.88A7.54,7.54,0,0,1,238,21a6.41,6.41,0,0,1-2.52-2.46,6.94,6.94,0,0,1-.92-3.58,7.38,7.38,0,0,1,.86-3.61,6.33,6.33,0,0,1,2.39-2.45,6.78,6.78,0,0,1,3.5-.89,6.3,6.3,0,0,1,3.35.86,5.55,5.55,0,0,1,2.14,2.38,7.85,7.85,0,0,1,.74,3.48,1,1,0,0,1-.33.79,1.12,1.12,0,0,1-.82.31H236.31v-2h10l-1,.7a5.45,5.45,0,0,0-.5-2.23,3.9,3.9,0,0,0-1.35-1.57,3.83,3.83,0,0,0-2.13-.57,4.57,4.57,0,0,0-2.43.62,4,4,0,0,0-1.54,1.72,5.56,5.56,0,0,0-.53,2.46,4.78,4.78,0,0,0,.63,2.45,4.6,4.6,0,0,0,1.72,1.7,5.13,5.13,0,0,0,2.53.62,4.62,4.62,0,0,0,1.59-.29,5,5,0,0,0,1.31-.66,1.37,1.37,0,0,1,.81-.28,1,1,0,0,1,.76.26,1.13,1.13,0,0,1,.45.82.88.88,0,0,1-.4.78,7,7,0,0,1-2.11,1.1A7.65,7.65,0,0,1,241.69,21.88Z"/><path class="a2747695-a7f7-48d2-bf11-513831371fa0" d="M253.51,21.78a1.18,1.18,0,0,1-.89-.36,1.31,1.31,0,0,1-.33-.91V9.38a1.28,1.28,0,0,1,.33-.92,1.18,1.18,0,0,1,.89-.35,1.24,1.24,0,0,1,.93.35,1.25,1.25,0,0,1,.35.92V20.51a1.28,1.28,0,0,1-.35.91A1.24,1.24,0,0,1,253.51,21.78Zm1-6V13.56h8.78v2.25Zm9.33,6a1.23,1.23,0,0,1-.91-.36,1.21,1.21,0,0,1-.37-.91V9.38a1.19,1.19,0,0,1,.37-.92,1.22,1.22,0,0,1,.91-.35,1.15,1.15,0,0,1,.9.35,1.32,1.32,0,0,1,.32.92V20.51a1.35,1.35,0,0,1-.32.91A1.16,1.16,0,0,1,263.79,21.78Z"/><path class="a2747695-a7f7-48d2-bf11-513831371fa0" d="M272.29,21.81A1.25,1.25,0,0,1,271,20.53V9.41a1.24,1.24,0,0,1,.36-.93,1.3,1.3,0,0,1,.92-.35,1.25,1.25,0,0,1,.92.35,1.24,1.24,0,0,1,.35.93V20.53a1.22,1.22,0,0,1-.35.91A1.19,1.19,0,0,1,272.29,21.81Zm8.35,0a1.25,1.25,0,0,1-1.28-1.28V13.38a3.14,3.14,0,0,0-.77-2.33,2.78,2.78,0,0,0-2-.77,2.85,2.85,0,0,0-2.15.9,3.21,3.21,0,0,0-.85,2.3H272a6,6,0,0,1,.65-2.86,4.88,4.88,0,0,1,1.8-1.94,5.32,5.32,0,0,1,5.15-.07,4.27,4.27,0,0,1,1.71,1.83,6.45,6.45,0,0,1,.61,2.94v7.15a1.26,1.26,0,0,1-.35.91A1.19,1.19,0,0,1,280.64,21.81Zm8.32,0a1.2,1.2,0,0,1-.91-.37,1.23,1.23,0,0,1-.36-.91V13.38a3.11,3.11,0,0,0-.78-2.33,2.76,2.76,0,0,0-2-.77,2.79,2.79,0,0,0-2.14.9,3.24,3.24,0,0,0-.84,2.3h-2.07a5.67,5.67,0,0,1,.7-2.86,5,5,0,0,1,2-1.94,5.91,5.91,0,0,1,2.89-.7,5,5,0,0,1,2.52.63,4.21,4.21,0,0,1,1.71,1.83,6.45,6.45,0,0,1,.62,2.94v7.15a1.26,1.26,0,0,1-.35.91A1.23,1.23,0,0,1,289,21.81Z"/><path class="a2747695-a7f7-48d2-bf11-513831371fa0" d="M301.66,21.88a6,6,0,0,1-3.27-.91,6.49,6.49,0,0,1-2.29-2.47,7.4,7.4,0,0,1-.84-3.54,7,7,0,0,1,.91-3.55,7,7,0,0,1,9.49-2.49,6.68,6.68,0,0,1,2.46,2.49A6.93,6.93,0,0,1,309,15h-1a7.4,7.4,0,0,1-.84,3.54A6.46,6.46,0,0,1,304.94,21,6,6,0,0,1,301.66,21.88Zm.5-2.25a4.28,4.28,0,0,0,2.28-.61A4.38,4.38,0,0,0,306,17.34a4.82,4.82,0,0,0,.58-2.38,4.88,4.88,0,0,0-.58-2.41,4.38,4.38,0,0,0-1.57-1.68,4.53,4.53,0,0,0-4.54,0,4.38,4.38,0,0,0-1.6,1.68,4.89,4.89,0,0,0-.59,2.41,4.83,4.83,0,0,0,.59,2.38A4.38,4.38,0,0,0,299.9,19,4.26,4.26,0,0,0,302.16,19.63Zm5.6,2.18a1.21,1.21,0,0,1-.91-.37,1.23,1.23,0,0,1-.36-.91V16.71l.47-2.65L309,15v5.57a1.26,1.26,0,0,1-1.28,1.28Z"/><path class="a2747695-a7f7-48d2-bf11-513831371fa0" d="M320.09,21.91a5.92,5.92,0,0,1-3.12-.83,5.72,5.72,0,0,1-2.13-2.26,6.83,6.83,0,0,1-.78-3.31V9.36a1.24,1.24,0,0,1,.36-.93,1.3,1.3,0,0,1,.92-.35,1.25,1.25,0,0,1,.92.35,1.28,1.28,0,0,1,.35.93v6.15a4.29,4.29,0,0,0,.51,2.12,3.73,3.73,0,0,0,1.42,1.45,4,4,0,0,0,2,.53,4.37,4.37,0,0,0,2-.42,3.25,3.25,0,0,0,1.32-1.13,3,3,0,0,0,.48-1.65h1.32a5.74,5.74,0,0,1-.71,2.85,5.17,5.17,0,0,1-2,1.95A5.93,5.93,0,0,1,320.09,21.91Zm8,4.32a1.13,1.13,0,0,1-.87-.37,1.28,1.28,0,0,1-.35-.93V21.78h-.38a2.25,2.25,0,0,1-1.65-.52,2.25,2.25,0,0,1-.52-1.65V9.36a1.24,1.24,0,0,1,.36-.93,1.26,1.26,0,0,1,.91-.35,1.29,1.29,0,0,1,.93.35,1.28,1.28,0,0,1,.35.93V19.63h1.05a1.26,1.26,0,0,1,1.3,1.3v4a1.4,1.4,0,0,1-.32.93A1,1,0,0,1,328.11,26.23Z"/><path class="a2747695-a7f7-48d2-bf11-513831371fa0" d="M339.11,21.91a6.42,6.42,0,0,1-3.09-.74A5.39,5.39,0,0,1,333.87,19a7.21,7.21,0,0,1-.78-3.5V9.36a1.27,1.27,0,0,1,.36-.92,1.28,1.28,0,0,1,2.19.92v6.15a4.59,4.59,0,0,0,.52,2.31,3.26,3.26,0,0,0,1.43,1.35,4.57,4.57,0,0,0,2,.44,4.07,4.07,0,0,0,1.91-.43A3.42,3.42,0,0,0,342.86,18a2.8,2.8,0,0,0,.5-1.62h1.58a5.29,5.29,0,0,1-.77,2.8,5.45,5.45,0,0,1-2.07,2A6,6,0,0,1,339.11,21.91Zm5.53-.13a1.23,1.23,0,0,1-1.28-1.27V9.36a1.24,1.24,0,0,1,.36-.93,1.28,1.28,0,0,1,.92-.35,1.25,1.25,0,0,1,.92.35,1.28,1.28,0,0,1,.35.93V20.51a1.28,1.28,0,0,1-.35.91A1.22,1.22,0,0,1,344.64,21.78Z"/><path class="a2747695-a7f7-48d2-bf11-513831371fa0" d="M360.56,21.78a1.15,1.15,0,0,1-.87-.36,1.24,1.24,0,0,1-.35-.91v-3.3h-3.53v-.33a5.08,5.08,0,0,1-2.35-.52,3.86,3.86,0,0,1-2.17-3.6,4.53,4.53,0,0,1,.63-2.38,4.66,4.66,0,0,1,1.75-1.66,5.25,5.25,0,0,1,2.57-.61h4.32a1.2,1.2,0,0,1,1.28,1.27V20.53a1.32,1.32,0,0,1-.37.9A1.18,1.18,0,0,1,360.56,21.78Zm-8.87-.3a.92.92,0,0,1-.38-.77,1.42,1.42,0,0,1,.3-.78l3.05-4H358l-4.28,5.32a1.22,1.22,0,0,1-1,.53A1.54,1.54,0,0,1,351.69,21.48Zm4.55-6.37h3.1V10.48h-3.1a2.59,2.59,0,0,0-1.75.64,2.06,2.06,0,0,0-.75,1.64,2.15,2.15,0,0,0,.75,1.7A2.6,2.6,0,0,0,356.24,15.11Z"/></svg>