<svg id="b0ee7ac8-f5ef-4d6e-ae64-35e665d87c20" data-name="ab535796-1ad7-491c-b367-61a3d3f0be02" xmlns="http://www.w3.org/2000/svg" viewBox="0 0 28.9 29.05"><defs><style>.a5efb73e-59c7-4b44-b7a5-2f0a0e10d970{fill:#6a6a6e;}</style></defs><path class="a5efb73e-59c7-4b44-b7a5-2f0a0e10d970" d="M18.83,25a6,6,0,1,1,4.28-10.21h0a6,6,0,0,1,0,8.4,6.61,6.61,0,0,1-1.89,1.31A6.14,6.14,0,0,1,18.83,25Zm0-10a4,4,0,1,0,1.57,7.68,4.49,4.49,0,0,0,1.29-.9A4,4,0,0,0,18.84,15Z" transform="translate(0 0.01)"/><path class="a5efb73e-59c7-4b44-b7a5-2f0a0e10d970" d="M25.92,29a3,3,0,0,1-2-.81l-3.59-3.59a1,1,0,0,1,1.42-1.42l3.5,3.5a.94.94,0,0,0,1.36,0l.08-.07A.92.92,0,0,0,26.9,26a.93.93,0,0,0-.29-.64l-3.89-3.6a1,1,0,0,1,1.36-1.46L28,23.9A2.88,2.88,0,0,1,28.9,26a2.91,2.91,0,0,1-.8,2.1,1.35,1.35,0,0,0-.12.12A2.86,2.86,0,0,1,25.92,29Z" transform="translate(0 0.01)"/><path class="a5efb73e-59c7-4b44-b7a5-2f0a0e10d970" d="M24.1,28H1.6A1.6,1.6,0,0,1,0,26.39a1,1,0,0,1,0-.17,8.15,8.15,0,0,1,5.81-6.15,4,4,0,0,0,3-3.34,7.38,7.38,0,0,1-3-5.89V7a5.09,5.09,0,0,1,2-4.09,4,4,0,0,1,2.8-.88,6.3,6.3,0,0,1,5.43-2,6.75,6.75,0,0,1,5.78,6.7V9a1,1,0,0,1-1,1,1,1,0,0,0-1,1,6.63,6.63,0,0,1-1.06,3.64,1,1,0,0,1-1.68-1.08A4.6,4.6,0,0,0,17.9,11a3,3,0,0,1,2-2.84V6.73a4.74,4.74,0,0,0-4-4.71,4.3,4.3,0,0,0-4,1.71,1,1,0,0,1-1,.37,2,2,0,0,0-1.74.4A3.14,3.14,0,0,0,7.9,7v3.81a5.39,5.39,0,0,0,2.53,4.55,1,1,0,0,1,.47.86A6,6,0,0,1,6.34,22a6.15,6.15,0,0,0-4.2,4h22a1,1,0,0,1,0,2Z" transform="translate(0 0.01)"/></svg>