<svg id="b70380c7-c322-410b-adbf-29f08903ccc0" data-name="f46054a6-6e9b-415a-b6c1-f5dcaeba731c" xmlns="http://www.w3.org/2000/svg" viewBox="0 0 27 30"><defs><style>.ebe0a078-b7a5-497b-841a-e8a6cfc2cc6a{fill:#6a6a6e;}</style></defs><path class="ebe0a078-b7a5-497b-841a-e8a6cfc2cc6a" d="M21,18a1,1,0,0,1-1-1V8H4A4,4,0,0,1,4,0H21a1,1,0,0,1,0,2H4A2,2,0,0,0,4,6H21a1,1,0,0,1,1,1V17A1,1,0,0,1,21,18Z"/><path class="ebe0a078-b7a5-497b-841a-e8a6cfc2cc6a" d="M13,28H4a4,4,0,0,1-4-4V4A1,1,0,0,1,2,4V24a2,2,0,0,0,2,2h9a1,1,0,0,1,0,2Z"/><path class="ebe0a078-b7a5-497b-841a-e8a6cfc2cc6a" d="M21,5H4A1,1,0,0,1,4,3H21a1,1,0,0,1,0,2Z"/><path class="ebe0a078-b7a5-497b-841a-e8a6cfc2cc6a" d="M5,28a1,1,0,0,1-1-1V7A1,1,0,0,1,6,7V27A1,1,0,0,1,5,28Z"/><path class="ebe0a078-b7a5-497b-841a-e8a6cfc2cc6a" d="M16.93,26a6,6,0,0,1-5.51-3.64,6,6,0,0,1,9.79-6.56h0a6,6,0,0,1,0,8.4,6.61,6.61,0,0,1-1.89,1.31A6.12,6.12,0,0,1,16.93,26Zm0-10a4,4,0,1,0,1.57,7.68,4.49,4.49,0,0,0,1.29-.9,4,4,0,0,0,0-5.58h0A4,4,0,0,0,16.94,16Z"/><path class="ebe0a078-b7a5-497b-841a-e8a6cfc2cc6a" d="M24,30a2.93,2.93,0,0,1-2-.8l-3.59-3.59a1,1,0,0,1,1.42-1.42l3.5,3.5a1,1,0,0,0,1.37,0l.79.62-.72-.69a.94.94,0,0,0,0-1.32l-3.89-3.58a1,1,0,1,1,1.36-1.48l3.9,3.6A3,3,0,0,1,26.2,29l-.11.1A2.82,2.82,0,0,1,24,30Z"/></svg>