<svg id="a123dece-4c9a-49ce-8cfd-39dca8309538" data-name="Слой 1" xmlns="http://www.w3.org/2000/svg" viewBox="0 0 24 21.53"><defs><style>.f0e2cd39-1166-43de-a5e1-2c5d8ef64602{fill:#6a6a6e;fill-rule:evenodd;}</style></defs><path class="f0e2cd39-1166-43de-a5e1-2c5d8ef64602" d="M12.59,3.66a1,1,0,0,0-1.18,0L5,8.33V20a1,1,0,0,0,1,1H8V15a3,3,0,0,1,3-3h2a3,3,0,0,1,3,3v6h2a1,1,0,0,0,1-1V8.33ZM21,9.78l1.41,1a1,1,0,0,0,1.18-1.62L13.76,2.05a3,3,0,0,0-3.52,0L.41,9.19a1,1,0,0,0-.22,1.4,1,1,0,0,0,1.4.22L3,9.78V20a3,3,0,0,0,3,3H18a3,3,0,0,0,3-3ZM14,21V15a1,1,0,0,0-1-1H11a1,1,0,0,0-1,1v6Z" transform="translate(0 -1.47)"/></svg>