<svg id="b8397caf-b2d1-4030-a7a1-192c54ff6c8c" data-name="a3e0a852-7f28-4cf0-89af-207b74265fcb" xmlns="http://www.w3.org/2000/svg" viewBox="0 0 20 20"><defs><style>.b6edcb56-c61e-42d6-bbd2-19dcfa793f98{fill:#6a6a6e;}</style></defs><path class="b6edcb56-c61e-42d6-bbd2-19dcfa793f98" d="M16,20a4,4,0,1,1,4-4A4,4,0,0,1,16,20Zm0-6a2,2,0,1,0,2,2A2,2,0,0,0,16,14Z"/><path class="b6edcb56-c61e-42d6-bbd2-19dcfa793f98" d="M4,8A4,4,0,1,1,8,4,4,4,0,0,1,4,8ZM4,2A2,2,0,1,0,6,4,2,2,0,0,0,4,2Z"/><path class="b6edcb56-c61e-42d6-bbd2-19dcfa793f98" d="M16,14a1,1,0,0,1-1-1V6a1,1,0,0,0-1-1H11a1,1,0,0,1,0-2h3a3,3,0,0,1,3,3v7A1,1,0,0,1,16,14Z"/><path class="b6edcb56-c61e-42d6-bbd2-19dcfa793f98" d="M4,20a1,1,0,0,1-1-1V7A1,1,0,0,1,5,7V19A1,1,0,0,1,4,20Z"/></svg>