<svg id="b303e324-72ff-46a3-a9e2-f720901bff51" data-name="ad143404-0690-4765-8d03-7de89c8a2ff5" xmlns="http://www.w3.org/2000/svg" viewBox="0 0 60 57.08"><defs><style>.e0d6e93c-6862-40cf-9f2f-487e14273383{fill:#6a6a6e;}</style></defs><path class="e0d6e93c-6862-40cf-9f2f-487e14273383" d="M2.83,49.68l10.22-.27a2,2,0,0,0,1.36-.58L47.87,15.42a9.05,9.05,0,0,0,0-12.78h0a9.05,9.05,0,0,0-12.78,0L1.68,36.05a2,2,0,0,0-.58,1.36L.83,47.63a1.89,1.89,0,0,0,.14.78,2,2,0,0,0,.43.67A2,2,0,0,0,2.83,49.68ZM37.92,5.47A5,5,0,0,1,45,12.59l-3,3.07L34.85,8.54ZM5.07,38.32,32,11.37l7.14,7.17L12.2,45.44l-7.31.18Z" transform="translate(0 0)"/><path class="e0d6e93c-6862-40cf-9f2f-487e14273383" d="M58,53.08H2a2,2,0,0,0,0,4H58a2,2,0,0,0,0-4Z" transform="translate(0 0)"/></svg>